<svg xmlns="http://www.w3.org/2000/svg" width="220" height="59.667" viewBox="0 0 220 59.667"><defs><style>.a{fill:#1a2341;}</style></defs><g transform="translate(-9.46 -8.996)"><path class="a" d="M35.951,13.29a12.731,12.731,0,0,0-10.925,5.264V14.024H21.17V59.652h3.856V42.393A12.516,12.516,0,0,0,35.4,47.748c8.66,0,14.689-7.1,14.689-17.229S44.489,13.29,35.951,13.29m-.4,31.368c-6.518,0-10.8-6.549-10.8-14.077,0-10.558,5.937-14.506,11.139-14.506,6.12,0,10.344,6.12,10.344,14.444s-4.468,14.138-10.68,14.138" transform="translate(24.218 8.949)"/><path class="a" d="M69.122,39.554a12.914,12.914,0,0,1-10.1,5.264A13.71,13.71,0,0,1,46.048,30.5,13.649,13.649,0,0,1,59.024,15.96,12.455,12.455,0,0,1,68.2,20.795l.49.673,2.448-3.06-.337-.367a15.669,15.669,0,0,0-11.813-4.713A16.74,16.74,0,0,0,42.009,30.5,16.495,16.495,0,0,0,58.993,47.633a16.831,16.831,0,0,0,12.455-5.141l.275-.337-2.173-3.4Z" transform="translate(67.288 8.971)"/><path class="a" d="M77.212,29.617c0,7.161-4.621,14.873-12.057,14.873-5.233,0-7.559-3.458-7.559-11.139V13.52H53.74V34.238c0,9,3.4,13.006,11.078,13.006a14.75,14.75,0,0,0,12.241-6.855v6.121h3.856V13.52h-3.7Z" transform="translate(91.572 9.392)"/><path class="a" d="M79.161,13.44a10.953,10.953,0,0,0-9.426,6.145V13.44H65.88V46.776h3.856V32.4a39.231,39.231,0,0,1,.949-8.849A8.02,8.02,0,0,1,79.559,17.4a9.724,9.724,0,0,1,1.347,0h.7V13.747h-.49a8.171,8.171,0,0,0-1.959-.215" transform="translate(116.727 9.156)"/><path class="a" d="M87.584,13.281a15.76,15.76,0,0,0-11.2,4.468,17.688,17.688,0,0,0-4.835,12.822A16.495,16.495,0,0,0,88.533,47.709a17.811,17.811,0,0,0,11.721-4.529l.337-.367-2.234-3.4-.49.765a12.241,12.241,0,0,1-9.181,4.8c-7.222,0-12.7-6.12-12.975-14.322H101.08V28.337c0-7.5-4.162-15.056-13.526-15.056m9.579,14.6H75.711C77,20.962,81.831,16.035,87.493,16.035s9.181,4.835,9.67,11.843" transform="translate(128.379 8.895)"/><path class="a" d="M25.527,13.27a15.852,15.852,0,0,0-11.2,4.5A17.688,17.688,0,0,0,9.492,30.591,16.128,16.128,0,0,0,26.017,47.729,19.739,19.739,0,0,0,38.258,43.2l.367-.367-2.234-3.4-.52.765a13.649,13.649,0,0,1-9.793,4.8c-7.222,0-12.241-6.121-12.516-14.322H38.931V28.357c0-7.5-4.162-15.087-13.526-15.087M13.623,27.745A12.914,12.914,0,0,1,25.191,15.657c5.264,0,10.1,5.325,9.915,12.241Z" transform="translate(0 8.875)"/><path class="a" d="M79.405,12.291a24.223,24.223,0,0,1,8.416,1.932l1.224-3.067a20.284,20.284,0,0,0-8.477-2.147,22.4,22.4,0,0,0-21.758,14.6L47.089,51.4l-11.6-28.37h-4.1L44.978,56.395,39.285,68.663h3.825l4.713-11.9s10.1-24.536,13.343-31.775A19.4,19.4,0,0,1,79.528,12.383" transform="translate(45.384 0)"/></g></svg>